HIERARCHY
ROOT Hips
{
 OFFSET 0.000000 0.000000 0.000000
 CHANNELS 6 Xposition Yposition Zposition Yrotation Xrotation Zrotation
 JOINT Chest
 {
  OFFSET 0.000000 9.585900 0.002600
  CHANNELS 3 Yrotation Xrotation Zrotation
  JOINT Chest2
  {
   OFFSET 0.000000 9.601200 -0.005300
   CHANNELS 3 Yrotation Xrotation Zrotation
   JOINT Chest3
   {
    OFFSET 0.000000 9.561800 0.000000
    CHANNELS 3 Yrotation Xrotation Zrotation
    JOINT Chest4
    {
     OFFSET 0.000000 9.552100 0.000000
     CHANNELS 3 Yrotation Xrotation Zrotation
     JOINT Neck
     {
      OFFSET 0.000000 14.453000 0.000000
      CHANNELS 3 Yrotation Xrotation Zrotation
      JOINT Head
      {
       OFFSET 0.000000 8.936500 -0.011300
       CHANNELS 3 Yrotation Xrotation Zrotation
       End Site
       {
        OFFSET 0.000000 17.073600 -0.006000
       }
      }
     }
     JOINT RightCollar
     {
      OFFSET -2.921100 9.558500 0.000000
      CHANNELS 3 Yrotation Xrotation Zrotation
      JOINT RightShoulder
      {
       OFFSET -13.519700 0.000000 0.000000
       CHANNELS 3 Yrotation Xrotation Zrotation
       JOINT RightElbow
       {
        OFFSET 0.000000 -29.696600 0.000000
        CHANNELS 3 Yrotation Xrotation Zrotation
        JOINT RightWrist
        {
         OFFSET 0.000000 -24.004700 0.000000
         CHANNELS 3 Yrotation Xrotation Zrotation
         End Site
         {
          OFFSET 0.000000 -17.728500 0.000000
         }
        }
       }
      }
     }
     JOINT LeftCollar
     {
      OFFSET 2.921100 9.558500 0.000000
      CHANNELS 3 Yrotation Xrotation Zrotation
      JOINT LeftShoulder
      {
       OFFSET 13.519700 0.000000 0.000000
       CHANNELS 3 Yrotation Xrotation Zrotation
       JOINT LeftElbow
       {
        OFFSET 0.000000 -29.696600 0.000000
        CHANNELS 3 Yrotation Xrotation Zrotation
        JOINT LeftWrist
        {
         OFFSET 0.000000 -24.004700 0.000000
         CHANNELS 3 Yrotation Xrotation Zrotation
         End Site
         {
          OFFSET 0.000000 -17.728500 0.000000
         }
        }
       }
      }
     }
    }
   }
  }
 }
 JOINT RightHip
 {
  OFFSET -7.771700 -0.012900 -0.001300
  CHANNELS 3 Yrotation Xrotation Zrotation
  JOINT RightKnee
  {
   OFFSET 0.000000 -40.869800 0.001200
   CHANNELS 3 Yrotation Xrotation Zrotation
   JOINT RightAnkle
   {
    OFFSET 0.000000 -39.717900 0.002100
    CHANNELS 3 Yrotation Xrotation Zrotation
    JOINT RightToe
    {
     OFFSET 0.000000 -4.965400 11.033500
     CHANNELS 3 Yrotation Xrotation Zrotation
     End Site
     {
      OFFSET 0.000000 -1.423100 5.872300
     }
    }
   }
  }
 }
 JOINT LeftHip
 {
  OFFSET 7.771700 -0.012900 -0.001300
  CHANNELS 3 Yrotation Xrotation Zrotation
  JOINT LeftKnee
  {
   OFFSET 0.000000 -40.869800 0.001200
   CHANNELS 3 Yrotation Xrotation Zrotation
   JOINT LeftAnkle
   {
    OFFSET 0.000000 -39.717900 0.002100
    CHANNELS 3 Yrotation Xrotation Zrotation
    JOINT LeftToe
    {
     OFFSET 0.000000 -4.965400 11.033500
     CHANNELS 3 Yrotation Xrotation Zrotation
     End Site
     {
      OFFSET 0.000000 -1.423100 5.872300
     }
    }
   }
  }
 }
}
MOTION
Frames: 8
Frame Time: 0.008333
0.000000 85.388000 0.000000 0.000000 -5.767877 0.000000 0.000000 11.653817 0.000000 0.000000 -5.885947 0.000000 0.000000 -0.000000 0.000000 0.000000 -0.000000 0.000000 0.000000 12.528835 0.000000 0.000000 0.711642 0.000000 0.000000 -0.000000 0.000000 0.000000 0.000000 -90.000000 0.000000 -2.309062 0.000000 0.000000 2.309062 0.000000 0.000000 -0.000000 0.000000 0.000000 -0.000000 90.000000 0.000000 -2.309062 0.000000 0.000000 2.309062 0.000000 0.000000 8.520406 0.000000 0.000000 1.905762 0.000000 -0.000000 -4.658285 0.000000 0.000000 -0.000000 0.000000 0.000000 8.520406 0.000000 0.000000 1.905762 0.000000 -0.000000 -4.658285 0.000000 0.000000 -0.000000 0.000000
-193.975371 58.015759 28.545296 172.372200 -49.803663 -3.727023 5.345777 22.172234 3.089073 2.770540 12.683912 1.548846 3.540647 15.841632 2.047636 2.771681 12.697483 1.551320 4.317143 21.719681 4.249302 6.602448 4.415613 6.513864 0.849045 6.109881 0.376928 -7.458140 -11.610816 -4.958479 -72.262585 -49.871814 114.634176 -9.788597 -9.380338 -32.437403 -9.587301 3.093243 -0.617634 8.610156 -11.490028 9.170204 68.345926 -49.875106 -113.250631 11.960531 -18.365509 32.684815 4.351010 -22.628820 0.460936 -38.723584 72.970062 -40.352705 5.745266 -12.519993 9.954625 0.008185 -0.185940 0.008047 -2.728594 -21.280052 11.831180 53.034390 79.478403 52.599553 4.499594 -15.961517 -16.358276 0.149484 0.188392 0.041532
-193.973769 58.017984 28.551905 172.400022 -49.803633 -3.775589 5.332981 22.173192 3.103263 2.777072 12.688624 1.556352 3.543684 15.847295 2.051777 2.767089 12.699159 1.553917 4.296746 21.674556 4.260988 6.592394 4.375583 6.512143 0.878560 6.066283 0.401054 -7.371774 -11.706192 -5.049781 -72.400186 -50.196392 114.757561 -9.647647 -8.886391 -32.079620 -9.620134 3.060466 -0.653074 8.450800 -11.536059 9.282105 68.444343 -50.025359 -113.446874 11.848833 -17.763203 31.898827 4.321236 -22.623612 0.485363 -38.677182 72.955831 -40.299513 5.749854 -12.537404 9.953027 0.001781 -0.155854 0.003571 -2.780569 -21.273701 11.856820 53.052635 79.468748 52.604903 4.528437 -15.922685 -16.355377 0.110420 0.163363 0.029499
-193.974446 58.021790 28.557617 172.397648 -49.818146 -3.788420 5.338467 22.186076 3.115065 2.773584 12.693318 1.554005 3.544703 15.853323 2.054328 2.763678 12.706824 1.556364 4.291112 21.641103 4.264241 6.577649 4.320367 6.521554 0.910812 6.014753 0.423853 -7.245725 -11.811087 -5.149710 -72.556576 -50.531382 114.871059 -9.481933 -8.466833 -31.826831 -9.658337 3.018009 -0.699408 8.306403 -11.577216 9.414474 68.556924 -50.222320 -113.666224 11.726713 -17.158404 31.139849 4.316440 -22.604463 0.500952 -38.633755 72.943077 -40.249539 5.745420 -12.524152 9.945860 0.006694 -0.156104 0.005301 -2.803919 -21.255227 11.866443 53.076515 79.456459 52.617757 4.538532 -15.911812 -16.352336 0.100618 0.160321 0.023185
-193.977237 58.025862 28.563107 172.400695 -49.836812 -3.793348 5.328991 22.198091 3.106355 2.767687 12.700814 1.550282 3.554069 15.858566 2.061507 2.763159 12.717059 1.558570 4.285703 21.611895 4.270351 6.565433 4.266302 6.533326 0.969348 5.931643 0.487195 -7.100402 -11.894009 -5.296519 -72.732730 -50.868059 114.970406 -9.304706 -8.112497 -31.623039 -9.687266 2.974688 -0.740641 8.150201 -11.617078 9.556910 68.679833 -50.467052 -113.891219 11.583204 -16.578018 30.462457 4.308384 -22.583258 0.501807 -38.601435 72.938785 -40.217484 5.747663 -12.514053 9.944940 0.007801 -0.160473 0.002575 -2.825433 -21.235371 11.860504 53.122336 79.443151 52.651976 4.551971 -15.896055 -16.354432 0.089312 0.151768 0.025139
-193.979943 58.028212 28.570120 172.396046 -49.844869 -3.793947 5.327205 22.200349 3.099371 2.774022 12.706477 1.558269 3.545391 15.869568 2.059784 2.768887 12.714492 1.559295 4.277988 21.591718 4.281474 6.555005 4.216606 6.551130 1.004153 5.890848 0.518203 -6.906384 -12.007209 -5.410921 -72.932892 -51.199082 115.060084 -9.125027 -7.806304 -31.435568 -9.722535 2.932905 -0.785235 7.984105 -11.656303 9.718741 68.807559 -50.744538 -114.098588 11.404742 -16.045099 29.900285 4.307995 -22.575477 0.505342 -38.572785 72.928798 -40.187468 5.742922 -12.495649 9.947809 0.008508 -0.167069 0.002003 -2.835578 -21.227056 11.859469 53.152475 79.434756 52.674051 4.560280 -15.888846 -16.355861 0.086386 0.149341 0.025382
-193.981040 58.029763 28.577838 172.393341 -49.849174 -3.805351 5.329966 22.194461 3.106980 2.772642 12.714185 1.559469 3.539590 15.882827 2.058219 2.777243 12.710589 1.561334 4.274372 21.575456 4.289622 6.544848 4.171219 6.580771 1.045180 5.848855 0.547672 -6.684219 -12.113629 -5.529314 -73.156933 -51.520098 115.148423 -8.949374 -7.526834 -31.250101 -9.759031 2.888193 -0.831280 7.809234 -11.698822 9.892197 68.937055 -51.041081 -114.273572 11.187975 -15.572152 29.463965 4.302823 -22.572271 0.517658 -38.552575 72.914953 -40.161414 5.747063 -12.476336 9.948447 0.012099 -0.171708 -0.000747 -2.854303 -21.224912 11.874510 53.174176 79.431102 52.685995 4.570546 -15.873801 -16.361360 0.077991 0.142745 0.028050
-193.983275 58.032839 28.583409 172.395125 -49.868886 -3.810627 5.334612 22.194263 3.104346 2.771446 12.726659 1.559912 3.541533 15.889726 2.068224 2.771891 12.720539 1.559644 4.275349 21.557555 4.302924 6.541999 4.154496 6.588954 1.095210 5.798305 0.580660 -6.443293 -12.204659 -5.652078 -73.401297 -51.831963 115.245646 -8.781090 -7.255956 -31.058798 -9.790869 2.836599 -0.872767 7.622242 -11.744585 10.071301 69.056936 -51.351585 -114.404018 10.945658 -15.167802 29.147042 4.292974 -22.547114 0.512661 -38.491664 72.906460 -40.094792 5.754598 -12.465856 9.943556 0.013051 -0.171258 -0.002162 -2.858241 -21.205883 11.879408 53.170116 79.428014 52.676324 4.568011 -15.864737 -16.358274 0.074584 0.137653 0.029488
